#!OML:ASF F:\VICON\USERDATA\INSTALL\rory3\rory3.ASF
:FULLY-SPECIFIED
:DEGREES
187
root 0.752721 16.6005 -9.81474 9.47306 0.546343 2.15758
lowerback -2.69967 0.565992 -3.00869
upperback -1.81543 0.818508 0.346765
thorax -0.396677 0.437843 2.06068
lowerneck -16.2763 -0.774622 -2.42666
upperneck 39.8807 0.289259 -1.29698
head 17.3845 -0.423854 -0.0960003
rclavicle -7.20594e-016 -1.59028e-015
rhumerus -43.2051 -11.2582 -72.5615
rradius 25.9496
rwrist -8.0917
rhand -3.08459 11.1085
rfingers 7.12502
rthumb 22.6328 -17.5845
lclavicle -7.20594e-016 -1.59028e-015
lhumerus -34.0112 18.589 63.2931
lradius 46.9476
lwrist -3.63041
lhand -3.25751 16.1868
lfingers 7.12502
lthumb 22.4668 44.9
rfemur -39.1813 18.4156 10.0224
rtibia 24.4998
rfoot -18.1405 -25.512
rtoes 6.67407
lfemur 11.2372 -9.02516 -27.8534
ltibia 4.57399
lfoot -17.3354 22.4218
ltoes -22.411
188
root 0.730864 16.5857 -9.64394 9.32411 0.449193 1.933
lowerback -2.70042 0.628825 -2.72623
upperback -1.79832 0.896655 0.471376
thorax -0.380452 0.474749 2.03194
lowerneck -16.1348 -0.763396 -2.50605
upperneck 39.9227 0.375523 -1.39878
head 17.3726 -0.414729 -0.111419
rclavicle 7.45443e-015 5.56597e-015
rhumerus -43.2792 -11.0346 -72.5396
rradius 25.9527
rwrist -8.02687
rhand -3.17262 10.4195
rfingers 7.12502
rthumb 22.5483 -18.2838
lclavicle 7.45443e-015 5.56597e-015
lhumerus -34.5252 18.9929 63.075
lradius 46.9282
lwrist -3.74832
lhand -2.90684 16.0642
lfingers 7.12502
lthumb 22.8034 44.7363
rfemur -39.2024 17.9845 10.8504
rtibia 25.7574
rfoot -16.1922 -25.1961
rtoes 6.3381
lfemur 11.8197 -8.83195 -27.6297
ltibia 4.88133
lfoot -16.8855 22.3972
ltoes -23.2205
189
root 0.704567 16.5783 -9.46808 9.1061 0.196945 1.61507
lowerback -2.59661 0.777815 -2.36756
upperback -1.79949 1.08531 0.557326
thorax -0.444646 0.567389 1.92119
lowerneck -16.0967 -0.71657 -2.38853
upperneck 40.1691 0.451753 -1.49109
head 17.5018 -0.380243 -0.162166
rclavicle -1.23992e-014 1.35174e-014
rhumerus -43.4716 -11.1418 -72.4151
rradius 25.8976
rwrist -7.80124
rhand -3.04452 10.1857
rfingers 7.12502
rthumb 22.6712 -18.5026
lclavicle -1.23992e-014 1.35174e-014
lhumerus -35.0342 19.468 62.7516
lradius 46.6437
lwrist -3.86173
lhand -2.76169 15.1983
lfingers 7.12502
lthumb 22.9427 43.8531
rfemur -39.0187 17.8508 11.7372
rtibia 26.7632
rfoot -14.9715 -24.5342
rtoes 6.70522
lfemur 11.7342 -8.47021 -27.3046
ltibia 6.56295
lfoot -17.3197 21.9173
ltoes -23.2298
190
root 0.682823 16.5745 -9.28871 8.86138 0.156316 1.14369
lowerback -2.56829 0.874159 -1.74834
upperback -1.70675 1.2015 0.699058
thorax -0.360812 0.619167 1.72201
lowerneck -16.55 -0.59276 -1.9543
upperneck 40.8047 0.736615 -1.98968
head 17.9932 -0.275818 -0.42548
rclavicle -1.71203e-014 -8.74653e-015
rhumerus -43.3458 -11.515 -72.1235
rradius 25.3645
rwrist -7.39725
rhand -3.0976 10.4794
rfingers 7.12502
rthumb 22.6203 -18.2151
lclavicle -1.71203e-014 -8.74653e-015
lhumerus -35.3658 19.8722 62.624
lradius 46.288
lwrist -3.72897
lhand -2.90578 13.9481
lfingers 7.12502
lthumb 22.8044 42.6201
rfemur -38.56 17.7134 12.714
rtibia 27.5323
rfoot -14.4381 -23.5748
rtoes 7.14559
lfemur 11.35 -8.2902 -26.8087
ltibia 8.90203
lfoot -17.6935 21.5827
ltoes -23.9635
191
root 0.663708 16.5661 -9.11526 8.7688 0.0428687 0.702392
lowerback -2.82242 0.971293 -1.18988
upperback -1.54 1.32183 0.869481
thorax -0.0439106 0.672047 1.59304
lowerneck -15.9646 -0.730928 -2.56236
upperneck 40.1874 0.511899 -1.5369
head 17.4793 -0.386732 -0.139536
rclavicle -3.926e-015 0
rhumerus -42.9424 -11.9988 -71.7353
rradius 24.6463
rwrist -6.8619
rhand -3.08689 10.6831
rfingers 7.12502
rthumb 22.6306 -18.0102
lclavicle -3.926e-015 0
lhumerus -35.5975 20.1933 62.7608
lradius 46.0743
lwrist -3.1998
lhand -3.32659 13.3946
lfingers 7.12502
lthumb 22.4005 42.1158
rfemur -38.2114 17.3394 13.6751
rtibia 28.1534
rfoot -13.4509 -22.4595
rtoes 6.5076
lfemur 10.6917 -8.06183 -26.3433
ltibia 11.4173
lfoot -17.9674 21.3921
ltoes -24.3132
192
root 0.640867 16.5651 -8.94729 8.68602 -0.132354 0.302947
lowerback -2.76359 1.0618 -0.709422
upperback -1.59409 1.43081 0.975074
thorax -0.126881 0.724889 1.43277
lowerneck -16.0348 -0.643292 -2.37968
upperneck 40.449 0.643647 -1.65595
head 17.647 -0.324746 -0.204822
rclavicle 2.60159e-014 -6.75868e-015
rhumerus -42.8955 -12.4116 -71.3759
rradius 24.0643
rwrist -6.16216
rhand -3.10348 10.583
rfingers 7.12502
rthumb 22.6146 -18.1122
lclavicle 2.60159e-014 -6.75868e-015
lhumerus -36.3883 20.1358 62.7206
lradius 46.3134
lwrist -2.38841
lhand -3.60442 13.1521
lfingers 7.12502
lthumb 22.1338 41.9051
rfemur -37.8023 16.9474 14.6166
rtibia 28.658
rfoot -12.7976 -21.2204
rtoes 7.01318
lfemur 9.83592 -7.64755 -25.8634
ltibia 14.0632
lfoot -18.1524 21.0387
ltoes -24.114
193
root 0.614869 16.5735 -8.7833 8.57708 -0.278645 -0.297185
lowerback -2.60298 1.14324 -0.0615554
upperback -1.57795 1.52499 1.1441
thorax -0.190523 0.768571 1.24183
lowerneck -17.0699 -0.356144 -1.44452
upperneck 41.3979 1.17908 -2.50348
head 18.5002 -0.0977955 -0.68393
rclavicle 1.1778e-014 -3.57812e-015
rhumerus -42.6297 -12.6412 -71.2308
rradius 23.6022
rwrist -5.8218
rhand -3.22738 10.212
rfingers 7.12502
rthumb 22.4957 -18.4977
lclavicle 1.1778e-014 -3.57812e-015
lhumerus -37.3129 19.9754 62.6466
lradius 46.702
lwrist -1.60152
lhand -3.60268 14.3942
lfingers 7.12502
lthumb 22.1355 43.1471
rfemur -37.4449 16.8931 15.641
rtibia 29.1414
rfoot -12.288 -20.5826
rtoes 6.53911
lfemur 8.95826 -7.10509 -25.1338
ltibia 16.7039
lfoot -17.7018 20.914
ltoes -24.833
194
root 0.589811 16.5813 -8.61882 8.48064 -0.36081 -0.906983
lowerback -2.67713 1.18939 0.567967
upperback -1.46067 1.5699 1.37228
thorax -0.0194757 0.7874 1.12746
lowerneck -16.7536 -0.410462 -1.75597
upperneck 41.0286 1.05596 -2.203
head 18.1855 -0.148428 -0.502057
rclavicle -1.95554e-014 -3.97569e-015
rhumerus -42.3121 -13.0622 -70.8345
rradius 23.0654
rwrist -5.1345
rhand -3.05885 10.3382
rfingers 7.12502
rthumb 22.6575 -18.3519
lclavicle -1.95554e-014 -3.97569e-015
lhumerus -38.0672 20.0745 62.6791
lradius 46.8684
lwrist -0.939063
lhand -3.8418 17.8619
lfingers 7.12502
lthumb 21.9059 46.6417
rfemur -37.1066 16.8338 16.6814
rtibia 29.6725
rfoot -11.9479 -20.2355
rtoes 5.29268
lfemur 8.18697 -6.48885 -24.359
ltibia 19.3307
lfoot -17.4809 20.5073
ltoes -24.5407
195
root 0.570048 16.5831 -8.44822 8.31805 -0.407705 -1.2694
lowerback -2.62344 1.21759 1.06606
upperback -1.51218 1.5979 1.47513
thorax -0.0921605 0.798806 0.952754
lowerneck -17.0147 -0.217977 -1.05021
upperneck 41.7286 1.44456 -2.93369
head 18.7012 0.0083851 -0.91396
rclavicle -4.96962e-017 2.78299e-015
rhumerus -42.4842 -13.6035 -70.1883
rradius 22.4527
rwrist -4.23808
rhand -2.99966 11.3119
rfingers 7.12502
rthumb 22.7143 -17.3712
lclavicle -4.96962e-017 2.78299e-015
lhumerus -38.9638 20.3426 62.4847
lradius 46.709
lwrist -0.515947
lhand -4.18691 19.9749
lfingers 7.12502
lthumb 21.5745 48.7932
rfemur -36.3056 16.2955 17.7397
rtibia 30.0521
rfoot -11.6386 -19.5981
rtoes 3.14556
lfemur 7.42268 -5.98808 -23.8619
ltibia 22.0313
lfoot -17.4471 20.0256
ltoes -24.2381
196
root 0.551083 16.5903 -8.27944 8.24463 -0.65223 -1.70572
lowerback -2.44925 1.32068 1.66573
upperback -1.68488 1.73097 1.56695
thorax -0.353202 0.860431 0.70775
lowerneck -15.7522 -0.340195 -1.86687
upperneck 40.9746 1.10432 -2.04826
head 17.8818 -0.116754 -0.39554
rclavicle -8.77137e-015 7.95139e-016
rhumerus -42.6904 -13.1547 -70.3427
rradius 22.8327
rwrist -4.64354
rhand -2.88267 9.78059
rfingers 7.12502
rthumb 22.8266 -18.8887
lclavicle -8.77137e-015 7.95139e-016
lhumerus -40.0913 20.6421 62.1106
lradius 46.424
lwrist -0.250315
lhand -4.50641 20.1399
lfingers 7.12502
lthumb 21.2676 48.9931
rfemur -35.4765 15.65 18.9041
rtibia 30.4403
rfoot -12.0418 -18.3921
rtoes 3.48754
lfemur 6.36993 -5.45991 -23.3517
ltibia 24.7744
lfoot -16.5795 20.1598
ltoes -24.6652
